<svg width="512" height="512" viewBox="0 0 512 512" fill="none" xmlns="http://www.w3.org/2000/svg">
<path d="M22 119.362C22 106.107 32.7452 95.3615 46 95.3615H219.625C225.908 95.3615 231.941 97.8259 236.428 102.225L433.303 295.273C437.906 299.787 440.5 305.963 440.5 312.41V448.362C440.5 461.616 429.755 472.362 416.5 472.362H275.73C271.352 472.362 267.058 471.164 263.312 468.9L33.5827 330.004C26.3931 325.657 22 317.868 22 309.466V119.362Z" fill="url(#paint0_linear_3022_32)"/>
<g filter="url(#filter0_d_3022_32)">
<path d="M481.951 69.5289C481.951 56.403 471.408 45.8505 458.285 45.8419L229.325 45.6915C221.78 45.6866 214.625 49.2317 210.009 55.2622L135.964 152L63.7766 259.891C61.0956 263.898 59.6649 268.6 59.6684 273.392L59.7864 431.293C59.7962 444.409 70.3313 454.949 83.4439 454.962L227.746 455.107C230.462 455.11 233.164 454.652 235.738 453.752L465.596 373.391C475.363 369.976 481.942 360.735 481.942 350.429L481.951 69.5289Z" fill="url(#paint1_linear_3022_32)"/>
</g>
<rect x="107.501" y="114.361" width="305" height="305" rx="152.5" fill="url(#paint2_linear_3022_32)"/>
<path d="M344.331 198.876L343.815 195.492L341.297 193.265C339.257 191.462 319.729 175.64 262.699 175.64C206.402 175.64 181.34 191.812 180.3 192.503L176.875 194.763L176.264 198.915C172.19 226.6 173.821 253.253 181.115 278.13C186.957 298.051 196.407 316.827 209.204 333.943C230.945 363.007 254.767 377.192 255.772 377.782L260.164 380.36L264.576 377.821C287.088 364.87 305.315 347.333 318.744 325.692C329.434 308.467 337.087 288.67 341.487 266.848C348.93 229.96 344.523 200.128 344.331 198.876ZM306.925 327.148C300.084 325.481 281.234 322.011 251.897 323.334C250.972 327.673 247.23 330.929 242.761 330.929C237.602 330.929 233.4 326.585 233.4 321.246C233.4 315.908 237.602 311.563 242.761 311.563C247.138 311.563 250.809 314.686 251.832 318.889C282.329 317.518 299.832 320.816 306.735 322.572L307.168 274.634C307.179 273.918 307.225 273.203 307.307 272.492C302.379 271.107 284.698 267.018 251.897 268.497C250.972 272.833 247.23 276.09 242.761 276.09C237.602 276.09 233.4 271.748 233.4 266.407C233.4 261.065 237.602 256.723 242.761 256.723C247.138 256.723 250.809 259.846 251.832 264.049C284.846 262.566 302.634 266.555 308.227 268.133C309.637 263.681 312.458 259.81 316.262 257.103L326.124 250.136C326.124 250.136 263.129 236.494 193.744 250.136L204.273 257.064C210.29 261.024 213.934 267.892 213.934 275.268V292.413C221.99 290.607 238.972 288 266.675 289.246C267.695 285.043 271.369 281.92 275.743 281.92C280.905 281.92 285.104 286.265 285.104 291.604C285.104 296.942 280.905 301.287 275.743 301.287C271.274 301.287 267.535 298.024 266.607 293.691C238.281 292.413 221.24 295.29 213.934 296.992L214.414 325.683C194.325 297.749 176.916 256.24 185.133 200.327C185.133 200.327 208.374 184.931 262.687 184.931C318.044 184.931 335.447 200.327 335.447 200.327C335.447 200.327 346.214 270.76 306.925 327.148Z" fill="#CBFFF3"/>
<path d="M319.193 201.83C313.049 198.792 309.704 198.325 309.704 198.325V206.903C309.704 212.21 305.132 216.274 300.044 215.482C295.919 214.849 292.868 211.192 292.868 206.903V194.686L271.911 192.56V205.057C271.911 209.855 268.142 213.742 263.493 213.742H262.061C257.411 213.742 253.642 209.855 253.642 205.057V192.563C248.074 192.563 232.329 194.805 232.329 194.805V207.622C232.329 211.982 229.195 215.668 225.002 216.233L224.884 216.251C219.843 216.931 215.374 212.882 215.374 207.637V197.76C200.916 200.529 194.322 206.042 194.322 206.042C190.171 222.33 193.391 247.16 193.391 247.16C193.391 247.16 220.504 240.823 260.074 240.823C298.962 240.823 326.493 247.16 326.493 247.16C326.493 247.16 327.679 235.032 327.679 225.672C327.704 219.115 327.308 212.564 326.493 206.057C326.493 206.057 322.351 203.392 319.193 201.83Z" fill="#CBFFF3"/>
<path d="M242.72 271.52C245.504 271.52 247.76 269.183 247.76 266.3C247.76 263.417 245.504 261.08 242.72 261.08C239.937 261.08 237.68 263.417 237.68 266.3C237.68 269.183 239.937 271.52 242.72 271.52Z" fill="#CBFFF3"/>
<path d="M242.72 326.479C245.504 326.479 247.76 324.142 247.76 321.259C247.76 318.376 245.504 316.039 242.72 316.039C239.937 316.039 237.68 318.376 237.68 321.259C237.68 324.142 239.937 326.479 242.72 326.479Z" fill="#CBFFF3"/>
<path d="M275.84 296.84C278.623 296.84 280.88 294.503 280.88 291.62C280.88 288.737 278.623 286.4 275.84 286.4C273.056 286.4 270.8 288.737 270.8 291.62C270.8 294.503 273.056 296.84 275.84 296.84Z" fill="#CBFFF3"/>
<defs>
<filter id="filter0_d_3022_32" x="30.2684" y="20.2915" width="481.082" height="468.216" filterUnits="userSpaceOnUse" color-interpolation-filters="sRGB">
<feFlood flood-opacity="0" result="BackgroundImageFix"/>
<feColorMatrix in="SourceAlpha" type="matrix" values="0 0 0 0 0 0 0 0 0 0 0 0 0 0 0 0 0 0 127 0" result="hardAlpha"/>
<feOffset dy="4"/>
<feGaussianBlur stdDeviation="14.7"/>
<feComposite in2="hardAlpha" operator="out"/>
<feColorMatrix type="matrix" values="0 0 0 0 0 0 0 0 0 0 0 0 0 0 0 0 0 0 0.25 0"/>
<feBlend mode="normal" in2="BackgroundImageFix" result="effect1_dropShadow_3022_32"/>
<feBlend mode="normal" in="SourceGraphic" in2="effect1_dropShadow_3022_32" result="shape"/>
</filter>
<linearGradient id="paint0_linear_3022_32" x1="716.5" y1="482.001" x2="45.95" y2="76.1074" gradientUnits="userSpaceOnUse">
<stop stop-color="#3FBEAA"/>
<stop offset="1" stop-color="#7BD9CA"/>
</linearGradient>
<linearGradient id="paint1_linear_3022_32" x1="69.1735" y1="466.295" x2="526.031" y2="136.371" gradientUnits="userSpaceOnUse">
<stop offset="0.105" stop-color="#6FE6CB"/>
<stop offset="1" stop-color="#35CEAB"/>
</linearGradient>
<linearGradient id="paint2_linear_3022_32" x1="260.001" y1="114.361" x2="260.001" y2="419.361" gradientUnits="userSpaceOnUse">
<stop stop-color="#012B47"/>
<stop offset="1" stop-color="#012B47"/>
</linearGradient>
</defs>
</svg>
